<svg xmlns="http://www.w3.org/2000/svg" xmlns:xlink="http://www.w3.org/1999/xlink" width="512" height="319.259" viewBox="0 0 512 319.259"><defs><style>.a{fill:#212121;}.b{fill:#ff8a50;}.c{fill:#fff;}.d{fill:#ff5722;}.e{fill:#c41c00;}.f{fill:#504c4a;}.g{clip-path:url(#a);}.h{opacity:0.199;}</style><clipPath id="a"><rect class="a" width="264" height="282" transform="translate(0.217 0.109)"/></clipPath></defs><g transform="translate(-1072 -2850)"><g transform="translate(1077.038 2926.601)"><path d="M-7113.683,3035.006l44.3,25.316,44.3-25.316,6.33,25.316V3098.3h-101.266v-37.975Z" transform="translate(7156.176 -2940.069)"/><path class="b" d="M-6917.687,3175l-6.329,6.329v12.658l6.329,6.329,6.33-6.329v-12.658Z" transform="translate(7004.485 -3048.42)"/><g transform="translate(48.823 0)"><path class="c" d="M-7045.026,2781.292h37.975l12.659-31.646,6.329-6.329v-12.658h-6.329l-6.33-18.988-6.329-12.658h-37.975l-6.329,12.658-6.329,18.988h-6.329v12.658l6.329,6.329Z" transform="translate(7064.014 -2680.025)"/><path class="d" d="M-6991.71,2886v18.987h-6.329l-6.329-6.329-6.329,6.329h-6.328V2886h-6.33l-6.329-6.329V2867.01l-6.329,6.329v31.646l31.646,18.987,31.646-18.987v-31.646l-6.329-6.329v12.658l-6.329,6.329Z" transform="translate(7042.343 -2810.047)"/><path class="d" d="M-6805.689,2736.988l6.33-6.329v-18.988l-6.33-12.658h-6.329v12.658l6.329,6.329Z" transform="translate(6868.981 -2680.025)"/><path class="d" d="M-7029.685,2736.988l-6.329-6.329v-18.988l6.329-12.658h6.329v12.658l-6.329,6.329Z" transform="translate(7042.343 -2680.025)"/><path class="d" d="M-7023.355,2935.667l-12.658,12.658,18.988-6.329,12.657-6.329,12.658,6.329,18.987,6.329-12.658-12.658-12.658-12.658H-7010.7Z" transform="translate(7042.343 -2853.388)"/><path class="d" d="M-6995.356,2640.331l12.658,6.329,12.659-6.329h6.329l6.329-6.329v-6.329l-25.317-6.329-12.658-6.329v6.329l-12.659,6.329V2634l6.329,6.329Z" transform="translate(7020.673 -2615.015)"/><path class="d" d="M-6896.017,2789.34v6.329h25.316v-6.329l-12.658-6.329Z" transform="translate(6933.992 -2745.037)"/><path class="d" d="M-7008.015,2795.669h25.316v-6.329l-12.658-6.329-12.659,6.329Z" transform="translate(7020.673 -2745.037)"/><path class="e" d="M-6924.017,2851.668V2858l6.329,6.329,6.33-6.329v-6.329l-6.33-12.658Z" transform="translate(6955.663 -2788.377)"/></g><path class="a" d="M-7010.7,2851.668h-18.987l-6.329-6.329v-6.329l6.329,6.329h50.633l6.329-6.329v6.329l-6.329,6.329h-18.987V2858l-6.329-6.329L-7010.7,2858Z" transform="translate(7091.166 -2788.377)"/><path class="f" d="M-6868.018,2901.338l12.658-6.329h6.329v6.329Z" transform="translate(6961.145 -2831.718)"/><path class="f" d="M-7008.015,2901.338l12.659-6.329h6.329v6.329Z" transform="translate(7069.496 -2831.718)"/><path class="e" d="M-6890,3220.55h85.9l-19.214-135.65" transform="translate(6978.158 -2979.501)"/><path d="M-6691.745,3090l4.521,134.519H-6720Z" transform="translate(6846.585 -2982.632)"/><path class="e" d="M-7194.1,3220.55H-7280l19.214-135.65" transform="translate(7280 -2979.501)"/><path d="M-7210.479,3090-7215,3224.519h32.776Z" transform="translate(7229.693 -2982.632)"/><g transform="translate(19.214 107.031)"><path class="b" d="M-7095.54,3084.9v13.563l-22.6,18.084-9.042,4.521-9.042-4.521-22.6-18.084V3084.9H-7195v40.688l18.083,54.251v40.688h99.46V3179.84l18.083-54.251V3084.9Z" transform="translate(7195 -3084.901)"/></g></g><g class="g" transform="translate(1319.783 2886.891)"><g transform="translate(-0.274 11.375)"><g transform="translate(170.369 136.849)"><path class="d" d="M-5170,3180.312l12.671,35.479,17.74-10.137,15.206,10.137,10.137-25.343-15.206-40.548-25.342,10.137Z" transform="translate(5187.166 -3139.764)"/><path d="M-5184.932,3150.449l25.343-10.137h25.342l-10.137-20.274-30.411-10.137L-5190,3130.175Z" transform="translate(5202.097 -3109.901)"/><path class="b" d="M-5138.159,3398.867l-1.5-11.234.223-24.041,16.1-7.866,16.027.148,14.232,20.969-19.618,41.493Z" transform="translate(5164.513 -3293.428)"/><path class="d" d="M-5219.27,3677.273l-8.088,7.939-3.294,9.587,3.146,6.44,6.44-3.146,3.295-9.587Z" transform="translate(5232.446 -3533.487)"/><path d="M-5160.325,3533.352l3.59-41.641,22.468-3,20.672,17.823-19.618,41.493-16.027-.148Z" transform="translate(5179.943 -3392.712)"/><path class="b" d="M-5231.147,3687.177l-6.588,19.174,4.793,1.647,9.735-12.733-6.588,19.174,4.793,1.647,11.382-17.526-6.589,19.174,4.794,1.647,11.382-17.526-4.942,14.38,4.793,1.647,9.735-12.733,6.588-19.173-3.146-6.44-27.114-14.676-6.44,3.146Z" transform="translate(5237.735 -3524.218)"/></g><g transform="translate(0 136.849)"><path class="d" d="M-5854.247,3180.312l-12.671,35.479-17.739-10.137-15.206,10.137L-5910,3190.449l15.206-40.548,25.343,10.137Z" transform="translate(5910.001 -3139.764)"/><path d="M-5839.315,3150.449l-25.342-10.137H-5890l10.136-20.274,30.411-10.137,15.206,20.274Z" transform="translate(5895.068 -3109.901)"/><path class="b" d="M-5859.072,3398.867l1.5-11.234-.222-24.041-16.1-7.866-16.027.148-14.232,20.969,19.618,41.493Z" transform="translate(5905.637 -3293.428)"/><path class="d" d="M-5678.677,3677.273l8.088,7.939,3.294,9.587-3.146,6.44-6.44-3.146-3.294-9.587Z" transform="translate(5738.419 -3533.487)"/><path d="M-5837.341,3533.352l-3.591-41.641-22.468-3-20.673,17.823,19.617,41.493,16.028-.148Z" transform="translate(5890.643 -3392.712)"/><path class="b" d="M-5775.788,3687.177l6.588,19.174-4.793,1.647-9.734-12.733,6.588,19.174-4.793,1.647-11.383-17.526,6.589,19.174-4.793,1.647-11.383-17.526,4.941,14.38-4.793,1.647-9.734-12.733-6.589-19.173,3.146-6.44,27.113-14.676,6.44,3.146Z" transform="translate(5842.119 -3524.218)"/></g><path d="M-5558.767,3069.9l20.273,20.274-55.753,35.479L-5650,3090.175l20.273-20.274Z" transform="translate(5715.891 -2943.188)"/><path class="d" d="M-5514.247,2949.9l15.205,30.411-20.274,15.206h-30.411L-5570,2980.312l15.205-30.411Z" transform="translate(5656.165 -2853.599)"/><path d="M-5474.794,2605.38l5.068-5.069,10.137-5.068v-15.206l-5.068,10.137V2569.9l-10.137,15.205v5.069l-10.137-10.137V2569.9l-5.068,15.205v10.137l10.137,5.068Z" transform="translate(5596.438 -2569.901)"/><path class="e" d="M-5470,2694.969l5.068-5.068h10.137l5.069,5.068H-5470Z" transform="translate(5581.507 -2659.49)"/><path class="d" d="M-5350,2869.9h25.343l-5.069,10.137L-5350,2890.175Z" transform="translate(5491.918 -2793.873)"/><path class="d" d="M-5584.657,2869.9H-5610l5.068,10.137,20.274,10.137Z" transform="translate(5686.027 -2793.873)"/><path class="b" d="M-5550,2785.38v30.411l20.273,15.206h20.274l20.274-15.206V2785.38l-5.068-25.343-10.137-10.137h-30.411l-10.137,10.137Z" transform="translate(5641.233 -2704.284)"/><path class="e" d="M-5464.932,2869.9h10.137l5.069,20.274-10.138,5.069-10.137-5.069Z" transform="translate(5581.507 -2793.873)"/><path class="d" d="M-5530,2834.969l20.273,5.068-5.068-10.137Z" transform="translate(5626.301 -2764.01)"/><path class="d" d="M-5410,2840.038l5.068-10.137,15.206,5.069Z" transform="translate(5536.712 -2764.01)"/><path d="M-5509.727,2720.038l5.069,10.137,5.069-10.137,5.068,5.069,5.068-5.069,10.137,10.137v-10.137l-15.206-10.137h-20.273L-5530,2720.038v10.137l10.137-10.137,10.137,5.069Z" transform="translate(5626.301 -2674.421)"/><path class="d" d="M-5459.589,3000.038l-15.206-10.137L-5490,3000.038h30.411Z" transform="translate(5596.438 -2883.462)"/><path class="c" d="M-5384.932,3014.969V3009.9l-5.068,5.069Z" transform="translate(5521.781 -2898.394)"/><path class="c" d="M-5490,3014.969V3009.9l5.068,5.069Z" transform="translate(5596.438 -2898.394)"/><path d="M-5618.493,3049.9v15.205l-25.342,20.274-10.137,5.068-10.137-5.068-25.343-20.274V3049.9H-5730v45.616l20.274,60.822v45.617h111.507v-45.617l20.274-60.822V3049.9Z" transform="translate(5775.617 -2928.257)"/><path class="e" d="M-5754.247,3040.038l-10.137-10.137h-35.479L-5810,3050.175l10.138,5.069h30.411Z" transform="translate(5835.343 -2913.325)"/><path class="e" d="M-5470,3189.9v55.753l10.137-5.068,10.138,5.068V3189.9Z" transform="translate(5581.507 -3032.777)"/><path class="e" d="M-5270,3040.038l10.137-10.137h35.479l10.137,20.274-10.137,5.069h-30.411Z" transform="translate(5432.192 -2913.325)"/></g></g><g transform="translate(3897.046 890)"><path class="f" d="M-2343.182,2035h-15.909l-7.955-23.864,15.909-6.364,15.909,6.364Z"/><path class="d" d="M-2359.091,1975.909l7.954,7.955,7.955-7.955-7.955-7.954V1960Z"/><path class="a" d="M-2359.091,2015l9.091-39.091V2015Z"/><path class="b" d="M-2359.091,2018.239v-26.42h7.954l7.955,4.4v22.017l-7.955,1.761Z"/><path class="d" d="M-2351.136,2020l-7.954-1.761v-26.42Z"/><path class="a" d="M-2359.091,2035h7.954v-15.909l-15.909-7.955Z"/></g><g transform="translate(3668.046 890)"><path class="f" d="M-2343.182,2035h-15.909l-7.955-23.864,15.909-6.364,15.909,6.364Z"/><path class="d" d="M-2359.091,1975.909l7.954,7.955,7.955-7.955-7.955-7.954V1960Z"/><path class="a" d="M-2359.091,2015l9.091-39.091V2015Z"/><path class="b" d="M-2359.091,2018.239v-26.42h7.954l7.955,4.4v22.017l-7.955,1.761Z"/><path class="d" d="M-2351.136,2020l-7.954-1.761v-26.42Z"/><path class="a" d="M-2359.091,2035h7.954v-15.909l-15.909-7.955Z"/></g><g transform="translate(3439.045 893)"><path class="f" d="M-2343.182,2035h-15.909l-7.955-23.864,15.909-6.364,15.909,6.364Z"/><path class="d" d="M-2359.091,1975.909l7.954,7.955,7.955-7.955-7.955-7.954V1960Z"/><path class="a" d="M-2359.091,2015l9.091-39.091V2015Z"/><path class="b" d="M-2359.091,2018.239v-26.42h7.954l7.955,4.4v22.017l-7.955,1.761Z"/><path class="d" d="M-2351.136,2020l-7.954-1.761v-26.42Z"/><path class="a" d="M-2359.091,2035h7.954v-15.909l-15.909-7.955Z"/></g><rect class="h" width="39" height="22" rx="4" transform="translate(1230 2944)"/><rect class="h" width="40" height="23" rx="4" transform="translate(1255 2970)"/><rect class="h" width="40" height="23" rx="4" transform="translate(1522 2970)"/></g></svg>